# 3ds Max Wavefront OBJ Exporter v0.97b - (c)2007 guruware
# File Created: 01.01.2020 21:02:38

#
# object pCube1
#

v  -2.0000 -2.0000 0.1000
v  2.0000 -2.0000 0.1000
v  2.0000 2.0000 0.1000
v  -2.0000 2.0000 0.1000
v  2.0000 2.0000 -0.1000
v  -2.0000 2.0000 -0.1000
v  2.0000 -2.0000 -0.1000
v  -2.0000 -2.0000 -0.1000
# 8 vertices

vn 0.0000 -0.0000 1.0000
vn 0.0000 1.0000 0.0000
vn 0.0000 0.0000 -1.0000
vn 0.0000 -1.0000 -0.0000
vn 1.0000 0.0000 -0.0000
vn -1.0000 0.0000 -0.0000
# 6 vertex normals

vt 0.0000 0.0000 0.0000
vt 1.0000 0.0000 0.0000
vt 1.0000 1.0000 0.0000
vt 0.0000 1.0000 0.0000
vt 0.0220 -0.0000 0.0000
vt 0.0780 -0.0000 0.0000
vt 0.0780 1.0000 0.0000
vt 0.0220 1.0000 0.0000
vt 0.0780 0.0000 0.0000
vt 0.0220 0.0000 0.0000
# 10 texture coords

o pCube1
g pCube1
f 1/1/1 2/2/1 3/3/1 
f 3/3/1 4/4/1 1/1/1 
f 4/5/2 3/6/2 5/7/2 
f 5/7/2 6/8/2 4/5/2 
f 6/4/3 5/3/3 7/2/3 
f 7/2/3 8/1/3 6/4/3 
f 8/8/4 7/7/4 2/9/4 
f 2/9/4 1/10/4 8/8/4 
f 2/10/5 7/9/5 5/7/5 
f 5/7/5 3/8/5 2/10/5 
f 8/9/6 1/10/6 4/8/6 
f 4/8/6 6/7/6 8/9/6 
# 12 faces

